<?xml version="1.0" encoding="UTF-8" standalone="no"?>
<svg
   xmlns:dc="http://purl.org/dc/elements/1.1/"
   xmlns:cc="http://creativecommons.org/ns#"
   xmlns:rdf="http://www.w3.org/1999/02/22-rdf-syntax-ns#"
   xmlns:svg="http://www.w3.org/2000/svg"
   xmlns="http://www.w3.org/2000/svg"
   xmlns:sodipodi="http://sodipodi.sourceforge.net/DTD/sodipodi-0.dtd"
   xmlns:inkscape="http://www.inkscape.org/namespaces/inkscape"
   width="375"
   height="42"
   viewBox="0 0 375 42"
   fill="none"
   version="1.1"
   id="svg4557"
   sodipodi:docname="actvstroke.svg"
   inkscape:version="0.92.4 (5da689c313, 2019-01-14)">
  <metadata
     id="metadata4563">
    <rdf:RDF>
      <cc:Work
         rdf:about="">
        <dc:format>image/svg+xml</dc:format>
        <dc:type
           rdf:resource="http://purl.org/dc/dcmitype/StillImage" />
      </cc:Work>
    </rdf:RDF>
  </metadata>
  <defs
     id="defs4561">
    <inkscape:path-effect
       effect="bspline"
       id="path-effect5415"
       is_visible="true"
       weight="33.333333"
       steps="2"
       helper_size="0"
       apply_no_weight="true"
       apply_with_weight="true"
       only_selected="false" />
    <marker
       inkscape:stockid="Arrow1Lstart"
       orient="auto"
       refY="0.0"
       refX="0.0"
       id="Arrow1Lstart"
       style="overflow:visible"
       inkscape:isstock="true">
      <path
         id="path5131"
         d="M 0.0,0.0 L 5.0,-5.0 L -12.5,0.0 L 5.0,5.0 L 0.0,0.0 z "
         style="fill-rule:evenodd;stroke:#000000;stroke-width:1pt;stroke-opacity:1;fill:#f8f7f7;fill-opacity:1"
         transform="scale(0.8) translate(12.5,0)" />
    </marker>
  </defs>
  <sodipodi:namedview
     pagecolor="#ffffff"
     bordercolor="#666666"
     borderopacity="1"
     objecttolerance="10"
     gridtolerance="10"
     guidetolerance="10"
     inkscape:pageopacity="0"
     inkscape:pageshadow="2"
     inkscape:window-width="1920"
     inkscape:window-height="1001"
     id="namedview4559"
     showgrid="false"
     inkscape:zoom="2.432"
     inkscape:cx="191.4897"
     inkscape:cy="48.765218"
     inkscape:window-x="-9"
     inkscape:window-y="-9"
     inkscape:window-maximized="1"
     inkscape:current-layer="g5129" />
  <g
     id="g5129"
     transform="translate(0.58150229,33.727133)">
    <path
       id="path4555"
       d="m 4.0767189,-30.885794 0.01694,28.673203 c 0,0 16.5282341,-18.202447 29.1968281,-21.53109 22.825719,-5.99736 29.402441,22.0795433 53.316976,21.1363074 19.964577,-0.7874655 31.479127,-12.1621274 51.395657,-10.7675324 17.36693,1.216093 12.40124,13.66407846 29.78066,14.7555075 22.05113,1.3847844 66.77207,-19.2095975 46.59231,-26.7194725 -10.97657,-4.084923 -19.75706,-2.474427 -30.74132,1.59519 -24.99077,9.258762 36.58986,20.5825372 63.40397,25.1242825 33.20832,5.6246403 50.10355,-13.9753795 83.57797,-9.5712197 14.9422,1.965992 39.65197,9.817189 39.65197,9.817189 l 9.6e-4,-32.2904108"
       inkscape:connector-curvature="0"
       style="fill:#f8f7f7;fill-opacity:1;stroke:#000000;stroke-width:2.62602448;stroke-opacity:1;paint-order:markers fill stroke"
       sodipodi:nodetypes="ccccccsccccc" />
    <path
       id="path4555-3"
       d="m 8.5332722,-0.92189681 c 0,0 13.2693968,-15.41480019 25.9379948,-18.74344419 22.825719,-5.99736 29.40244,22.0795449 53.316975,21.136309 19.964568,-0.78746554 31.479108,-12.162128 51.395648,-10.7675331 17.36692,1.2160932 12.40124,13.6640791 29.78065,14.7555082 22.05114,1.3847847 66.77207,-19.2095981 46.59232,-26.7194741 -10.97658,-4.084923 -19.75707,-2.474425 -30.74132,1.59519 -24.99078,9.258762 36.58985,20.58253876 63.40397,25.1242841 33.20831,5.6246399 50.10355,-13.9753805 83.57797,-9.5712202 14.9422,1.9659922 36.98565,9.5712202 36.98565,9.5712202"
       style="fill:none;fill-opacity:1;stroke:#f2ce6f;stroke-width:2.62602448;stroke-opacity:1"
       inkscape:connector-curvature="0"
       sodipodi:nodetypes="cccccscccc" />
  </g>
  <path
     style="fill:none;fill-opacity:1;stroke:none;stroke-width:0.29075113;stroke-opacity:1"
     d="M 257.31791,45.988558 C 250.1336,45.15266 225.99599,39.803546 212.3205,36.016724 l -6.18212,-1.71187 -3.99417,1.973398 c -7.27645,3.59508 -14.87199,6.235344 -22.31148,7.755641 -3.19404,0.652719 -4.56825,0.776251 -8.86791,0.797159 -5.61863,0.02733 -7.25816,-0.260824 -10.75127,-1.889514 -2.97266,-1.386025 -4.77312,-2.992259 -8.30258,-7.406897 -3.62671,-4.536287 -4.87814,-5.736857 -7.34509,-7.046572 -2.59017,-1.375126 -4.70455,-1.826487 -9.40217,-2.007102 -7.98436,-0.306984 -13.43722,1.022932 -25.83813,6.30175 C 98.27272,37.48769 92.873826,39.085934 85.650646,39.791238 79.892259,40.353516 75.595716,39.523227 70.364922,36.837332 66.293944,34.746979 63.279852,32.323321 56.067918,25.340993 48.69974,18.207396 46.023731,16.060872 42.307437,14.303217 39.045657,12.760529 36.787535,12.303929 33.492298,12.520763 28.743111,12.833271 24.466375,14.707491 18.904757,18.91355 15.290149,21.647153 9.0427268,27.924205 5.3265306,32.556172 L 2.3656103,36.246746 1.5478168,35.631982 C 1.0980305,35.293862 0.61718236,34.920229 0.47926548,34.80169 -0.00811738,34.382778 7.4674095,25.579256 11.734614,21.546877 20.509166,13.25519 27.23976,9.7976912 34.602532,9.7996492 c 5.642322,0.00151 9.913596,1.7929838 16.052713,6.7329288 l 1.828482,1.471318 -2.180634,-2.105412 C 46.134946,11.874118 41.757827,9.0446682 37.928806,7.899516 35.672135,7.2246099 31.337335,7.2168861 28.787509,7.8832278 20.991934,9.9204324 11.801918,17.556228 1.8212256,30.288959 L 1.1679205,31.122406 0.15139306,30.43013 C -0.40769705,30.049377 -0.86602846,29.646451 -0.86712116,29.534733 -0.87081239,29.157343 3.6556245,23.654215 6.7381461,20.288442 13.827194,12.547984 21.745487,6.9304593 27.915255,5.2646317 c 2.958949,-0.7989111 8.5703,-0.7284982 11.162763,0.1400738 5.220096,1.7489289 8.49555,4.0976724 16.45167,11.7970655 8.284178,8.016867 11.0213,10.225988 15.359427,12.396537 3.66026,1.831384 6.285746,2.437414 10.524351,2.429284 7.480791,-0.01433 12.728387,-1.447879 26.749104,-7.307313 11.05122,-4.618444 15.6018,-5.830977 22.82397,-6.081599 6.95725,-0.24143 11.0976,0.612451 14.8707,3.066845 2.2134,1.439812 3.55549,2.775184 6.33576,6.304067 4.2671,5.416069 5.91929,6.773821 9.95397,8.180109 2.11635,0.737656 2.61236,0.793951 7.07334,0.802828 5.11378,0.01018 7.11163,-0.244906 12.5023,-1.596253 4.73353,-1.186614 13.37455,-4.173896 13.37455,-4.623708 0,-0.10613 -0.6869,-0.438839 -1.52644,-0.739354 -5.46695,-1.956901 -10.93209,-4.879895 -13.48303,-7.211311 -1.9805,-1.810061 -2.72635,-3.213923 -2.72635,-5.131611 0,-0.94565 -0.20404,-1.79297 -0.58041,-2.410279 -0.37143,-0.609203 -0.58081,-1.466211 -0.5815,-2.38018 -0.002,-2.9567688 2.10028,-5.0434944 7.51237,-7.4558883 11.3921,-5.07792805 20.05325,-6.02177391 28.68506,-3.1259455 6.62776,2.2235057 9.74016,5.1234052 9.74016,9.0751618 0,0.587491 0.27523,1.607669 0.61163,2.26706 0.48804,0.95663 0.58947,1.590999 0.50199,3.139299 -0.18192,3.219441 -2.00071,6.071115 -6.39441,10.025746 -1.52013,1.368228 -2.13554,2.097361 -1.88741,2.236218 0.95295,0.533295 18.18691,4.601424 29.84981,7.046138 9.24794,1.938502 12.47574,2.300214 18.8958,2.117482 8.87462,-0.252596 12.92764,-1.178711 29.51124,-6.743333 18.13165,-6.084065 22.41741,-6.984545 33.14563,-6.964212 5.92796,0.01124 7.53875,0.112588 10.7041,0.673521 7.20478,1.27676 16.98617,4.049447 26.71657,7.573218 6.15299,2.228247 11.08529,4.123517 11.32533,4.351835 0.10482,0.09969 -0.0262,0.715347 -0.29075,1.368129 l -0.48131,1.186876 -4.36126,-1.714609 c -2.3987,-0.943034 -8.02474,-2.939346 -12.5023,-4.436249 -16.02036,-5.355789 -25.77224,-7.091955 -35.423,-6.306491 -8.47862,0.690064 -12.97675,1.794029 -27.96075,6.862317 -14.8662,5.028448 -19.86228,6.249108 -28.12044,6.87049 -4.39743,0.330884 -10.03404,0.03791 -14.61998,-0.75989 -6.72197,-1.169401 -26.27973,-5.567256 -34.95898,-7.861047 l -5.01162,-1.324494 -0.89283,0.635757 c -0.49106,0.349663 -0.83806,0.690534 -0.77111,0.757488 0.41975,0.419746 16.76947,4.53436 27.38773,6.892471 17.89832,3.974868 22.78938,4.625554 30.22537,4.021062 8.09015,-0.657673 11.87458,-1.596485 27.19798,-6.747072 17.16578,-5.769855 23.03465,-7.033078 32.70951,-7.040446 2.87843,-0.0023 6.41106,0.147222 7.85028,0.332032 6.98623,0.897098 15.40388,3.061109 26.1676,6.727185 5.26716,1.793969 14.88146,5.388924 15.23725,5.697469 0.12284,0.106546 -0.86088,2.434427 -1.02876,2.434427 -0.0524,0 -1.37366,-0.508305 -2.93604,-1.129568 -5.14748,-2.04685 -14.09916,-5.19155 -19.02908,-6.684869 -12.57426,-3.808837 -19.28863,-4.901744 -28.29133,-4.605018 -8.74019,0.28807 -13.84095,1.470401 -30.2433,7.010214 -16.47526,5.564439 -21.1602,6.591168 -30.67424,6.722431 -3.27822,0.04523 -6.41834,0.02896 -6.97803,-0.03617 z m -79.66987,-4.343784 c 6.47321,-1.048888 14.39464,-3.609161 21.90285,-7.079174 1.41011,-0.651701 2.49289,-1.299704 2.40618,-1.440003 -0.0867,-0.140299 -0.74342,-0.419095 -1.45937,-0.619547 -1.27699,-0.357537 -1.38341,-0.331242 -5.60445,1.384827 -9.87092,4.013037 -17.95511,5.892633 -25.38219,5.901425 -4.96523,0.0059 -7.52196,-0.504389 -10.81803,-2.159036 -2.68875,-1.349772 -2.84379,-1.113295 -0.53485,0.815772 4.31698,3.606736 10.59771,4.636579 19.48986,3.195736 z M 91.008254,36.286411 c 4.186694,-0.882564 8.802575,-2.480151 16.859566,-5.835204 3.76016,-1.565789 8.40391,-3.386138 10.31946,-4.04522 10.97959,-3.777759 22.05241,-3.723044 28.49982,0.140829 l 1.7445,1.045466 -1.57447,-1.601754 c -1.888,-1.920707 -4.13505,-3.172597 -7.20215,-4.012508 -1.90689,-0.522191 -3.06607,-0.622163 -7.21469,-0.62222 -7.7704,-1.07e-4 -11.74039,1.045698 -25.02701,6.592794 C 95.869334,32.768136 90.008898,34.406012 83.099221,34.7439 75.167355,35.131771 69.026188,32.801732 61.497012,26.547732 l -2.326009,-1.932065 2.471385,2.365677 c 5.546564,5.309323 10.279047,8.238897 15.555186,9.629208 2.821109,0.743389 9.488934,0.586892 13.81068,-0.324141 z m 115.910486,-5.596687 1.09703,-0.647258 -1.39857,-0.395009 c -1.4836,-0.419028 -2.30341,-0.335288 -3.21013,0.327898 -0.52301,0.382538 -0.47743,0.436586 0.72688,0.861925 1.67141,0.590315 1.52065,0.598302 2.78479,-0.147556 z m -6.83735,-2.136313 c 0.48666,-0.251661 0.8313,-0.511097 0.76588,-0.576525 -0.0654,-0.06543 -2.00745,-0.763854 -4.3156,-1.552059 -5.6262,-1.921276 -10.81387,-4.143437 -13.64443,-5.844659 -1.2802,-0.769421 -2.32763,-1.307214 -2.32763,-1.195095 0,0.112119 0.49064,0.678771 1.09031,1.259226 2.22531,2.153994 6.81492,4.549399 13.85031,7.228745 3.38,1.287236 3.40145,1.29042 4.58116,0.680367 z m 15.94076,-4.678078 c 2.69704,-2.580725 4.22289,-4.819083 4.52623,-6.639778 l 0.19376,-1.163004 -0.52011,0.726878 c -2.09466,2.927422 -6.38064,6.808423 -10.24083,9.273195 -1.64836,1.052497 -1.65598,1.285866 -0.0557,1.706674 0.89622,0.235673 1.17264,0.160338 2.31691,-0.631429 0.71461,-0.494465 2.4155,-1.967107 3.77977,-3.272536 z m -7.66306,-0.06792 c 5.19131,-3.448663 8.66047,-6.687729 10.17509,-9.500191 0.4488,-0.833385 0.46069,-1.015645 0.0953,-1.460552 -0.59883,-0.729037 -4.1242,-2.298743 -7.09841,-3.1606366 -5.32876,-1.5442122 -10.36489,-1.5417623 -16.32939,0.00794 -4.30828,1.1193876 -11.66371,4.1923586 -13.47902,5.6313036 l -0.72688,0.576177 0.5815,0.583237 c 0.91255,0.915266 4.92043,3.096121 8.4278,4.585911 3.4423,1.462152 13.65664,5.022063 14.42892,5.02878 0.25788,0.0022 2.02419,-1.029145 3.92514,-2.291972 z M 185.15563,10.42657 c 3.54766,-1.5599006 7.68139,-2.9831274 11.10454,-3.8232525 2.31987,-0.5693542 3.507,-0.676623 7.41415,-0.6699445 4.0755,0.00697 5.00044,0.1014382 7.46345,0.7623036 1.54629,0.4148934 3.89084,1.2221195 5.21012,1.7938354 1.31928,0.5717162 2.4651,0.9730723 2.54627,0.8919024 0.29333,-0.2933359 -1.50943,-1.8584482 -3.14438,-2.7298701 -6.16245,-3.2845473 -14.04744,-4.0557779 -21.52487,-2.105345 -5.80962,1.5153964 -12.57841,4.5008213 -14.45437,6.3752107 -0.89015,0.8894 -1.27782,2.260458 -0.77993,2.758348 0.0965,0.09653 0.91427,-0.328223 1.81719,-0.943897 0.90293,-0.615674 2.85945,-1.654855 4.34783,-2.309291 z"
     id="path4580"
     inkscape:connector-curvature="0" />
</svg>
