<?xml version="1.0" encoding="UTF-8" standalone="no"?>
<svg
   xmlns:dc="http://purl.org/dc/elements/1.1/"
   xmlns:cc="http://creativecommons.org/ns#"
   xmlns:rdf="http://www.w3.org/1999/02/22-rdf-syntax-ns#"
   xmlns:svg="http://www.w3.org/2000/svg"
   xmlns="http://www.w3.org/2000/svg"
   xmlns:sodipodi="http://sodipodi.sourceforge.net/DTD/sodipodi-0.dtd"
   xmlns:inkscape="http://www.inkscape.org/namespaces/inkscape"
   width="375"
   height="42"
   viewBox="0 0 375 42"
   fill="none"
   version="1.1"
   id="svg4"
   sodipodi:docname="actvs.svg"
   inkscape:version="0.92.4 (5da689c313, 2019-01-14)">
  <metadata
     id="metadata10">
    <rdf:RDF>
      <cc:Work
         rdf:about="">
        <dc:format>image/svg+xml</dc:format>
        <dc:type
           rdf:resource="http://purl.org/dc/dcmitype/StillImage" />
      </cc:Work>
    </rdf:RDF>
  </metadata>
  <defs
     id="defs8" />
  <sodipodi:namedview
     pagecolor="#ffffff"
     bordercolor="#666666"
     borderopacity="1"
     objecttolerance="10"
     gridtolerance="10"
     guidetolerance="10"
     inkscape:pageopacity="0"
     inkscape:pageshadow="2"
     inkscape:window-width="1920"
     inkscape:window-height="1001"
     id="namedview6"
     showgrid="false"
     inkscape:zoom="2.0000001"
     inkscape:cx="161.80175"
     inkscape:cy="83.013783"
     inkscape:window-x="-9"
     inkscape:window-y="-9"
     inkscape:window-maximized="1"
     inkscape:current-layer="layer1" />
  <g
     inkscape:groupmode="layer"
     id="layer3"
     inkscape:label="Layer 3" />
  <g
     inkscape:groupmode="layer"
     id="layer2"
     inkscape:label="Layer 2"
     style="display:inline" />
  <g
     inkscape:groupmode="layer"
     id="layer1"
     inkscape:label="Layer 1">
    <g
       id="g1068"
       transform="matrix(1.2423892,0,0,1.052972,-44.620736,-1.1130282)">
      <path
         id="path2-7"
         d="m 38.344531,32.313886 c 0,0 11.05016,-15.461273 21.600004,-18.799953 19.00824,-6.0154497 24.48504,22.146113 44.400005,21.200033 16.62559,-0.78984 26.21439,-12.198793 42.79999,-10.79999 14.4624,1.21976 10.3272,13.70527 24.8,14.79999 18.3632,1.38896 55.6048,-19.267513 38.8,-26.800033 -9.1408,-4.0972397 -16.4528,-2.4818897 -25.6,1.6 -20.8112,9.28668 30.4704,20.644593 52.8,25.200033 27.6544,5.6416 41.724,-14.01751 69.6,-9.60007 12.4432,1.97191 30.8,9.60007 30.8,9.60007"
         style="display:inline;fill:none;fill-opacity:1;stroke:#f2ce68;stroke-width:2.4000001;stroke-opacity:1"
         inkscape:connector-curvature="0" />
      <path
         inkscape:connector-curvature="0"
         id="path2"
         d="m 35.380048,27.735466 c 0,0 11.05016,-15.461283 21.6,-18.7999627 19.008237,-6.01544 24.485037,22.1461127 44.400002,21.2000327 16.6256,-0.78983 26.2144,-12.198793 42.8,-10.799993 14.4624,1.21976 10.3272,13.705273 24.8,14.799993 18.3632,1.38896 55.6048,-19.267513 38.8,-26.8000327 -9.1408,-4.09724 -16.4528,-2.48189 -25.6,1.6 -20.8112,9.2866797 30.4704,20.6446027 52.8,25.2000327 27.6544,5.6416 41.724,-14.017513 69.6,-9.60007 12.4432,1.97192 30.8,9.60007 30.8,9.60007"
         style="fill:none;fill-opacity:1;stroke:#000000;stroke-width:2.4000001" />
      <path
         inkscape:connector-curvature="0"
         id="path996"
         d="m 35.91762,30.044684 v -1.904113 l 0.226064,0.165946 c 0.187522,0.137654 0.232409,0.154607 0.263283,0.09944 0.064,-0.114356 1.044174,-1.394907 1.668878,-2.180303 4.266535,-5.364015 8.902119,-9.944085 12.956182,-12.801024 3.043178,-2.144557 5.685554,-3.351087 8.448013,-3.8574287 3.629154,-0.6652015 6.916892,-0.00781 10.351227,2.0697687 0.733448,0.443693 1.678147,1.086612 1.645147,1.119611 -0.01056,0.01056 -0.304277,-0.08997 -0.652706,-0.223405 -1.366036,-0.523129 -2.512275,-0.804114 -4.021946,-0.985927 -0.865754,-0.104264 -2.556488,-0.103055 -3.461657,0.0025 -5.009062,0.583987 -9.560774,3.002628 -15.291185,8.125267 -0.962212,0.860159 -3.896627,3.787006 -4.841379,4.828893 -2.024644,2.232806 -4.397422,5.09852 -5.61151,6.777278 l -0.236294,0.326732 0.109028,0.09311 c 0.05997,0.05121 0.158096,0.126873 0.218068,0.168135 0.104157,0.07166 0.06699,0.07512 -0.830087,0.07734 l -0.939126,0.0023 z"
         style="fill:none;fill-opacity:1;stroke:none;stroke-width:0.04419417;stroke-linecap:square;stroke-opacity:1;paint-order:markers fill stroke" />
      <path
         inkscape:connector-curvature="0"
         id="path998"
         d="m 35.91762,30.044684 v -1.904113 l 0.226064,0.165946 c 0.187522,0.137654 0.232409,0.154607 0.263283,0.09944 0.064,-0.114356 1.044174,-1.394907 1.668878,-2.180303 4.266535,-5.364015 8.902119,-9.944085 12.956182,-12.801024 3.043178,-2.144557 5.685554,-3.351087 8.448013,-3.8574287 3.629154,-0.6652015 6.916892,-0.00781 10.351227,2.0697687 0.733448,0.443693 1.678147,1.086612 1.645147,1.119611 -0.01056,0.01056 -0.304277,-0.08997 -0.652706,-0.223405 -1.366036,-0.523129 -2.512275,-0.804114 -4.021946,-0.985927 -0.865754,-0.104264 -2.556488,-0.103055 -3.461657,0.0025 -5.009062,0.583987 -9.560774,3.002628 -15.291185,8.125267 -0.962212,0.860159 -3.896627,3.787006 -4.841379,4.828893 -2.024644,2.232806 -4.397422,5.09852 -5.61151,6.777278 l -0.236294,0.326732 0.109028,0.09311 c 0.05997,0.05121 0.158096,0.126873 0.218068,0.168135 0.104157,0.07166 0.06699,0.07512 -0.830087,0.07734 l -0.939126,0.0023 z"
         style="fill:none;fill-opacity:1;stroke:none;stroke-width:0.04419417;stroke-linecap:square;stroke-opacity:1;paint-order:markers fill stroke" />
      <path
         inkscape:connector-curvature="0"
         id="path1000"
         d="m 35.91762,30.044684 v -1.904113 l 0.226064,0.165946 c 0.187522,0.137654 0.232409,0.154607 0.263283,0.09944 0.064,-0.114356 1.044174,-1.394907 1.668878,-2.180303 4.266535,-5.364015 8.902119,-9.944085 12.956182,-12.801024 3.043178,-2.144557 5.685554,-3.351087 8.448013,-3.8574287 3.629154,-0.6652015 6.916892,-0.00781 10.351227,2.0697687 0.733448,0.443693 1.678147,1.086612 1.645147,1.119611 -0.01056,0.01056 -0.304277,-0.08997 -0.652706,-0.223405 -1.366036,-0.523129 -2.512275,-0.804114 -4.021946,-0.985927 -0.865754,-0.104264 -2.556488,-0.103055 -3.461657,0.0025 -5.009062,0.583987 -9.560774,3.002628 -15.291185,8.125267 -0.962212,0.860159 -3.896627,3.787006 -4.841379,4.828893 -2.024644,2.232806 -4.397422,5.09852 -5.61151,6.777278 l -0.236294,0.326732 0.109028,0.09311 c 0.05997,0.05121 0.158096,0.126873 0.218068,0.168135 0.104157,0.07166 0.06699,0.07512 -0.830087,0.07734 l -0.939126,0.0023 z"
         style="fill:none;fill-opacity:1;stroke:none;stroke-width:0.04419417;stroke-linecap:square;stroke-opacity:1;paint-order:markers fill stroke" />
      <path
         inkscape:connector-curvature="0"
         id="path1002"
         d="m 35.91762,30.044684 v -1.904113 l 0.226064,0.165946 c 0.187522,0.137654 0.232409,0.154607 0.263283,0.09944 0.064,-0.114356 1.044174,-1.394907 1.668878,-2.180303 4.266535,-5.364015 8.902119,-9.944085 12.956182,-12.801024 3.043178,-2.144557 5.685554,-3.351087 8.448013,-3.8574287 3.629154,-0.6652015 6.916892,-0.00781 10.351227,2.0697687 0.733448,0.443693 1.678147,1.086612 1.645147,1.119611 -0.01056,0.01056 -0.304277,-0.08997 -0.652706,-0.223405 -1.366036,-0.523129 -2.512275,-0.804114 -4.021946,-0.985927 -0.865754,-0.104264 -2.556488,-0.103055 -3.461657,0.0025 -5.009062,0.583987 -9.560774,3.002628 -15.291185,8.125267 -0.962212,0.860159 -3.896627,3.787006 -4.841379,4.828893 -2.024644,2.232806 -4.397422,5.09852 -5.61151,6.777278 l -0.236294,0.326732 0.109028,0.09311 c 0.05997,0.05121 0.158096,0.126873 0.218068,0.168135 0.104157,0.07166 0.06699,0.07512 -0.830087,0.07734 l -0.939126,0.0023 z"
         style="fill:#f8f7f7;fill-opacity:1;stroke:none;stroke-width:0.04419417;stroke-linecap:square;stroke-opacity:1;paint-order:markers fill stroke" />
      <path
         inkscape:connector-curvature="0"
         id="path1004"
         d="m 35.91762,30.044302 v -1.904495 l 0.219849,0.157946 0.219849,0.157946 0.539656,-0.717276 c 3.210294,-4.266917 7.310276,-8.698657 10.914402,-11.797557 3.049092,-2.621672 6.030033,-4.524665 8.667999,-5.533536 1.166876,-0.4462634 2.542893,-0.7969467 3.855526,-0.9825958 0.875152,-0.1237751 2.86249,-0.1132474 3.71231,0.019666 2.326973,0.3639415 4.483132,1.2653958 6.818529,2.8507128 0.800568,0.543442 0.811925,0.572678 0.117459,0.302366 -1.446241,-0.56293 -2.983243,-0.932173 -4.450719,-1.069221 -0.837383,-0.0782 -2.88634,-0.03032 -3.66317,0.0856 -3.386834,0.505414 -6.284341,1.698475 -9.649671,3.973294 -2.507149,1.694727 -4.800996,3.640145 -7.645587,6.484245 -2.806804,2.80632 -5.403287,5.790873 -7.705591,8.857268 l -0.511567,0.681347 0.126186,0.09205 c 0.360237,0.26279 0.409141,0.24364 -0.626334,0.245261 l -0.939126,0.0015 z"
         style="fill:#f8f7f7;fill-opacity:1;stroke:none;stroke-width:0.04419417;stroke-linecap:square;stroke-opacity:1;paint-order:markers fill stroke" />
      <path
         inkscape:connector-curvature="0"
         id="path1006"
         d="m 101.63228,33.43989 c -3.16575,-0.32694 -6.097565,-1.424241 -9.144622,-3.42259 -0.337353,-0.221247 -0.603107,-0.412528 -0.590564,-0.425072 0.01254,-0.01254 0.328775,0.103639 0.702738,0.25818 2.655761,1.097505 5.452469,1.594736 8.469948,1.505882 4.43931,-0.130722 8.93019,-1.085504 14.15625,-3.009689 1.52405,-0.561143 3.49958,-1.363491 6.46875,-2.627244 5.82935,-2.481121 8.55065,-3.478407 11.5,-4.214454 4.10432,-1.024285 8.06701,-1.306061 11.8125,-0.839953 2.47265,0.30771 4.56412,1.059467 6.25,2.246498 0.53441,0.376282 1.02288,0.805507 0.858,0.753939 -2.07594,-0.649283 -3.69548,-0.920047 -6.27479,-1.049058 -4.26443,-0.213296 -8.61891,0.435424 -13.36446,1.991004 -2.426,0.795236 -4.29907,1.53053 -9.125,3.582125 -8.02107,3.409904 -11.96506,4.600114 -17.09375,5.158516 -1.06012,0.115423 -3.85881,0.171044 -4.625,0.09192 z"
         style="fill:#f8f7f7;fill-opacity:1;stroke:none;stroke-width:0.0625;stroke-linecap:square;stroke-opacity:1;paint-order:markers fill stroke" />
      <path
         inkscape:connector-curvature="0"
         id="path1008"
         d="m 172.33741,37.517779 c -0.1375,-0.01353 -0.55609,-0.05426 -0.93021,-0.09051 -2.49581,-0.241858 -4.63619,-0.942493 -6.35104,-2.078952 -0.52315,-0.346705 -1.26711,-0.922474 -1.23431,-0.95527 0.0117,-0.01171 0.30125,0.06363 0.64342,0.167427 3.11782,0.945737 6.88024,1.108779 11.32717,0.490854 5.43248,-0.754871 11.99305,-2.75207 18.08125,-5.504371 l 1.09877,-0.496725 1.9892,0.668678 1.9892,0.668678 -0.86922,0.436304 c -1.17247,0.588517 -2.78075,1.317053 -4.38417,1.985995 -5.87003,2.44895 -11.81101,4.063478 -16.89131,4.590399 -0.90359,0.09372 -3.90765,0.172706 -4.46875,0.117498 z"
         style="fill:#f8f7f7;fill-opacity:1;stroke:none;stroke-width:0.0625;stroke-linecap:square;stroke-opacity:1;paint-order:markers fill stroke" />
      <path
         inkscape:connector-curvature="0"
         id="path1010"
         d="m 200.96241,28.450415 c -0.48125,-0.154178 -1.33494,-0.428805 -1.8971,-0.610281 l -1.0221,-0.329957 0.63638,-0.34005 0.63637,-0.340049 1.96298,0.565364 c 1.07964,0.31095 1.96338,0.580052 1.96385,0.598003 0.002,0.05641 -1.22762,0.748897 -1.31869,0.742953 -0.0477,-0.0031 -0.48044,-0.131805 -0.96169,-0.285983 z"
         style="fill:#f8f7f7;fill-opacity:1;stroke:none;stroke-width:0.0625;stroke-linecap:square;stroke-opacity:1;paint-order:markers fill stroke" />
      <path
         inkscape:connector-curvature="0"
         id="path1012"
         d="m 193.33741,25.843933 c -3.76852,-1.427524 -6.71995,-2.825431 -8.70233,-4.121756 -0.31754,-0.207643 -0.56451,-0.390363 -0.54882,-0.406046 0.0157,-0.01568 0.43017,0.155743 0.92108,0.380945 2.26421,1.038685 5.2747,2.199367 8.64257,3.332103 1.16875,0.393093 2.16719,0.730832 2.21875,0.750532 0.0988,0.03776 -0.88808,0.579343 -1.0625,0.583071 -0.0516,0.0011 -0.7125,-0.23238 -1.46875,-0.518849 z"
         style="fill:#f8f7f7;fill-opacity:1;stroke:none;stroke-width:0.0625;stroke-linecap:square;stroke-opacity:1;paint-order:markers fill stroke" />
      <path
         inkscape:connector-curvature="0"
         id="path1014"
         d="m 197.02491,23.552341 c -6.65203,-2.121128 -11.34914,-4.035227 -14.60937,-5.953398 -0.30078,-0.176966 -0.54688,-0.352909 -0.54688,-0.390983 0,-0.03807 0.21797,-0.281196 0.48438,-0.54027 0.79862,-0.776638 1.87236,-1.414171 3.82812,-2.272937 4.75189,-2.086532 8.42189,-3.174067 11.9375,-3.537446 0.98852,-0.102174 3.37172,-0.101751 4.3125,7.66e-4 1.63588,0.178261 3.28669,0.528104 4.8125,1.01988 0.8585,0.276695 2.67259,0.979127 3.14145,1.216392 0.34187,0.173004 0.34196,0.174863 0.0424,0.914724 -1.12445,2.777444 -4.92012,6.273783 -10.35608,9.539385 -0.5244,0.315028 -0.98846,0.583785 -1.03125,0.597237 -0.0428,0.01345 -0.94967,-0.253555 -2.0153,-0.59335 z"
         style="fill:#f8f7f7;fill-opacity:1;stroke:none;stroke-width:0.0625;stroke-linecap:square;stroke-opacity:1;paint-order:markers fill stroke" />
      <path
         inkscape:connector-curvature="0"
         id="path1016"
         d="m 204.14991,25.65967 c -0.99687,-0.28125 -1.8125,-0.529636 -1.8125,-0.551968 0,-0.02233 0.5625,-0.416225 1.25,-0.875317 4.55003,-3.038368 7.47292,-5.917599 8.85767,-8.725368 0.42694,-0.865678 0.39436,-0.855422 0.79787,-0.251167 1.47362,2.206765 -0.31489,5.531574 -4.99929,9.293606 -0.9819,0.788567 -2.13767,1.632676 -2.22612,1.625839 -0.0303,-0.0023 -0.87075,-0.234375 -1.86763,-0.515625 z"
         style="fill:#f8f7f7;fill-opacity:1;stroke:none;stroke-width:0.0625;stroke-linecap:square;stroke-opacity:1;paint-order:markers fill stroke" />
      <path
         inkscape:connector-curvature="0"
         id="path1030"
         d="m 242.02872,38.103679 c -4.65853,-0.594711 -21.91221,-4.435286 -32.17335,-7.161614 -2.23623,-0.594153 -4.17353,-1.137696 -4.30511,-1.207874 -0.17186,-0.09166 -0.073,-0.224716 0.3512,-0.47243 l 0.59043,-0.344833 5.83599,1.446899 c 9.79009,2.427227 21.9792,5.061237 26.07692,5.635099 2.94788,0.412834 7.25391,0.53078 10.24843,0.280714 6.30125,-0.526203 10.01841,-1.449583 22.10171,-5.490289 5.33889,-1.785349 10.72779,-3.472727 12.37437,-3.874677 10.3343,-2.522733 18.50766,-2.311523 29.61512,0.765293 5.92068,1.640055 13.80955,4.31899 19.83974,6.737261 2.23031,0.894418 2.35266,0.923535 2.52528,0.600981 0.15216,-0.284305 0.37999,-0.338976 1.41264,-0.338976 h 1.23121 v 1.225053 1.225052 l -1.10485,-0.450166 c -4.50614,-1.835999 -13.56141,-4.961486 -18.34058,-6.330375 -8.01976,-2.297082 -12.89934,-3.094185 -18.94148,-3.094185 -7.09782,0 -13.17422,1.187148 -22.74499,4.443701 -14.57426,4.959046 -17.80008,5.841412 -23.8093,6.512621 -2.23923,0.250115 -8.46941,0.188148 -10.78338,-0.107255 z"
         style="fill:#f8f7f7;fill-opacity:1;stroke:none;stroke-width:0.17677669;stroke-linecap:square;stroke-linejoin:miter;stroke-opacity:1;paint-order:markers fill stroke" />
      <path
         inkscape:connector-curvature="0"
         id="path1032"
         d="m 179.1456,14.85629 c -0.81809,-1.129346 -0.64722,-1.96347 0.61941,-3.023684 1.85024,-1.548709 8.61903,-4.2368843 12.7912,-5.0799276 4.94811,-0.9998346 9.87549,-0.4259166 14.47695,1.6862098 1.28928,0.5917953 2.42067,1.2958019 2.29094,1.425532 -0.0382,0.038259 -0.50024,-0.078529 -1.02664,-0.259529 -2.8426,-0.9774212 -4.13206,-1.1643866 -8.02815,-1.1640431 -3.44253,3.035e-4 -3.86412,0.036105 -5.80132,0.4926427 -5.56714,1.3120022 -12.07491,4.1327712 -13.89977,6.0248022 -0.33506,0.347395 -0.67264,0.631627 -0.75019,0.631627 -0.0775,0 -0.38014,-0.330133 -0.67243,-0.73363 z"
         style="fill:#f8f7f7;fill-opacity:1;stroke:none;stroke-width:0.17677669;stroke-linecap:square;stroke-linejoin:miter;stroke-opacity:1;paint-order:markers fill stroke" />
      <path
         inkscape:connector-curvature="0"
         id="path1036"
         d="m 239.46963,33.551915 c -1.11149,-0.134474 -3.81062,-0.607235 -5.99804,-1.05058 -8.36208,-1.694813 -24.06604,-5.322928 -24.06604,-5.560023 0,-0.0591 0.70527,-0.713616 1.56726,-1.454474 0.86199,-0.740859 2.0882,-1.998114 2.72491,-2.793905 3.18115,-3.97595 3.36834,-7.286349 0.56434,-9.980543 -0.67876,-0.652176 -0.98926,-1.111146 -1.14118,-1.686851 -0.77614,-2.9413318 -3.89202,-5.0547683 -9.63572,-6.5357188 -6.01912,-1.5519666 -11.84425,-0.8546714 -19.65524,2.3528268 -5.69705,2.3394309 -7.72561,4.109581 -7.73622,6.750752 -0.006,1.38688 0.50383,2.42774 1.8379,3.755392 0.81818,0.814238 1.08096,1.220352 1.31503,2.032319 0.36564,1.268338 1.86415,2.940392 3.8163,4.258241 1.41907,0.957992 4.9255,2.7471 7.02759,3.585739 0.7037,0.280744 1.28026,0.550219 1.28125,0.598833 0.006,0.313967 -6.86412,2.700025 -10.37622,3.603541 -9.57228,2.462555 -16.22292,1.853693 -20.27119,-1.855808 -0.65939,-0.604218 -2.00326,-2.139569 -2.98638,-3.411893 -3.89912,-5.04616 -6.28786,-6.736334 -10.91575,-7.723544 -2.70703,-0.577456 -7.9543,-0.577484 -11.22095,-5.9e-5 -4.07289,0.71994 -7.57083,1.868078 -14.08212,4.622218 -9.62377,4.070653 -13.38798,5.200468 -18.92807,5.681191 -5.035051,0.4369 -8.734948,-0.541663 -13.140248,-3.475385 C 87.000117,23.632114 85.154728,22.0208 80.446951,17.402372 74.953905,12.013578 72.403091,9.9933589 69.140771,8.4479827 62.414016,5.2614889 55.477847,6.7081896 47.4463,12.972873 c -1.942388,1.515081 -7.802626,7.374281 -9.770451,9.76872 -0.858972,1.045192 -1.590222,1.900349 -1.625002,1.900349 -0.03478,0 -0.06323,-5.329817 -0.06323,-11.844038 V 0.95386509 H 186.86652 337.74543 V 17.305709 33.657554 h -1.06688 c -0.99796,0 -1.05513,-0.02197 -0.88489,-0.340032 0.16636,-0.31088 -0.0111,-0.416079 -2.07093,-1.227088 -13.16885,-5.185153 -24.00293,-8.305466 -32.03975,-9.227739 -2.5597,-0.293742 -8.36118,-0.244416 -11.22532,0.09544 -6.30716,0.748405 -9.5234,1.627017 -23.89257,6.526982 -7.28292,2.483515 -12.18854,3.673468 -17.18255,4.167949 -2.49158,0.246703 -7.45648,0.196042 -9.91291,-0.101151 z"
         style="fill:#f8f7f7;fill-opacity:1;stroke:none;stroke-width:0.17677669;stroke-linecap:square;stroke-linejoin:miter;stroke-opacity:1;paint-order:markers fill stroke" />
      <path
         sodipodi:nodetypes="cccccc"
         inkscape:connector-curvature="0"
         id="path1048"
         d="m 335.83361,33.093749 -0.84533,2.058595 0.58561,-0.429688 2.1683,-0.01563 -0.004,-1.058594 z"
         style="fill:#f8f7f7;fill-opacity:1;stroke:none;stroke-width:1.00644469px;stroke-linecap:butt;stroke-linejoin:miter;stroke-opacity:1" />
    </g>
  </g>
</svg>
