<svg width="300" height="186" viewBox="0 0 300 186" fill="none" xmlns="http://www.w3.org/2000/svg">
<g filter="url(#filter0_d)">
<path d="M38.508 1.70984C-5.992 24.7098 -4.99198 49.2098 13.508 102.21M130.508 134C130.508 134 189.795 94.7179 216.008 116.5C216.52 116.926 217.031 117.356 217.539 117.79M217.539 117.79C232.392 130.483 245.225 146.86 236.008 164C225.543 183.461 196.544 181.071 179.508 167C160.046 150.926 188.94 129.177 217.539 117.79ZM217.539 117.79C225.579 114.589 233.596 112.207 240.508 111C272.008 105.5 294.008 82.5 294.008 82.5" stroke="#27253F" stroke-width="3"/>
</g>
<defs>
<filter id="filter0_d" x="0.00101471" y="0.377319" width="299.09" height="185.198" filterUnits="userSpaceOnUse" color-interpolation-filters="sRGB">
<feFlood flood-opacity="0" result="BackgroundImageFix"/>
<feColorMatrix in="SourceAlpha" type="matrix" values="0 0 0 0 0 0 0 0 0 0 0 0 0 0 0 0 0 0 127 0"/>
<feOffset dx="4" dy="6"/>
<feColorMatrix type="matrix" values="0 0 0 0 0.94902 0 0 0 0 0.807843 0 0 0 0 0.407843 0 0 0 1 0"/>
<feBlend mode="normal" in2="BackgroundImageFix" result="effect1_dropShadow"/>
<feBlend mode="normal" in="SourceGraphic" in2="effect1_dropShadow" result="shape"/>
</filter>
</defs>
</svg>
